<?xml version="1.0" encoding="utf-8"?>
<!-- Generator: Adobe Illustrator 24.0.1, SVG Export Plug-In . SVG Version: 6.00 Build 0)  -->
<svg version="1.1" id="Layer_1" xmlns="http://www.w3.org/2000/svg" xmlns:xlink="http://www.w3.org/1999/xlink" x="0px" y="0px"
	 viewBox="0 0 500 500" style="enable-background:new 0 0 500 500;" xml:space="preserve">
<style type="text/css">
	.st0{fill:#020203;}
</style>
<path class="st0" d="M399.95,472.25c-8.04,0-14.14-3.07-14.55-3.28l-1.41-0.95c-16.61-14.29-27.43-26.91-36.12-37.06
	c-23.65-27.62-33.45-39.03-118.41-33.1c-15.65,0.11-27.56,0.02-37.03-0.04c-11.11-0.06-19.02-0.12-24.59,0.16
	c-15.73,15.94-44.18,23.97-66.36,18.37c-14.79-3.74-25.27-13.06-29.97-26.51c-17.87-1.93-39.35-8.06-49.96-25.35
	c-8.53-13.89-8.13-32.07,1.18-54.04l0.97-2.29l2.17-1.22c14.69-8.26,71.32-58.42,107.16-102.62l1.16-1.14
	c13.63-10.72,16.09-20.51,18.92-31.85c5.12-20.47,10.42-41.63,73.82-61.87c6.4-4.42,15.84-15.21,25.82-26.61
	c24.22-27.66,51.73-58.97,77.83-54.69c12.61,2.08,22.77,12.24,30.19,30.19l0.44,1.48c2.27,12.48-3.09,22.08-7.39,29.79
	c-4.25,7.6-5.57,10.72-3.84,13.93c5.95,0.29,15.42-0.09,26.13-0.5c52.31-2,96.4-1.84,106.5,20.46c5.23,11.54-0.09,25.78-16.24,43.49
	v65.96l-11.1-6.86c-0.88-0.54-89.26-54.5-143.6-35.5c-16.89,5.91-28.45,18.09-35.33,37.25c-13.34,37.17-11.6,66.42,5.19,86.93
	c23.41,28.6,75.87,39.3,143.98,29.33l7.31-1.07l0.96,7.33c8.3,63.6,2.54,102.84-17.1,116.62
	C410.97,471.01,405.07,472.25,399.95,472.25z M392.7,456.31c2.15,0.88,9.37,3.25,15.74-1.32c8.03-5.75,19.95-25.82,11.81-95.48
	c-69.74,8.86-124.16-3.97-149.98-35.52c-20.25-24.75-22.82-58.76-7.63-101.07c8.34-23.23,23.23-38.74,44.24-46.08
	c49.17-17.17,118.16,15.87,144.93,30.49v-46.1l1.99-2.11c12.45-13.15,18.12-23.95,15.54-29.62c-6.88-15.2-64.83-12.98-92.68-11.92
	c-13.95,0.53-24.96,0.95-31.44,0.17l-2.75-0.33l-1.83-2.08c-10.94-12.4-4.35-24.21,0.46-32.83c3.54-6.34,6.89-12.35,5.9-19.37
	c-5.3-12.51-11.62-19.45-18.79-20.63c-18.22-2.99-44.96,27.59-64.51,49.92c-11.56,13.2-21.54,24.61-29.7,29.8l-0.8,0.51l-0.91,0.29
	c-56.57,17.88-60.51,33.62-65.06,51.84c-3.01,12.02-6.41,25.62-23.4,39.25c-33.87,41.61-88.54,91.46-108.58,104.17
	c-6.53,16.37-6.97,29.35-1.29,38.6c8.85,14.42,31.16,18.03,43.67,18.89l5.41,0.37l1.19,5.29c2.46,10.94,9.47,17.94,20.82,20.8
	c17.75,4.5,42.44-2.89,53.93-16.1l1.93-2.22l2.92-0.26c6.3-0.55,14.73-0.5,28.7-0.4c9.42,0.07,21.28,0.16,36.38,0.06
	c88.28-6.2,102.84,6.43,130.01,38.17C367.59,431.6,377.39,443.04,392.7,456.31z"/>
</svg>
