<?xml version="1.0" encoding="utf-8"?>
<!-- Generator: Adobe Illustrator 24.0.1, SVG Export Plug-In . SVG Version: 6.00 Build 0)  -->
<svg version="1.1" id="Layer_1" xmlns="http://www.w3.org/2000/svg" xmlns:xlink="http://www.w3.org/1999/xlink" x="0px" y="0px"
	 viewBox="0 0 500 500" style="enable-background:new 0 0 500 500;" xml:space="preserve">
<style type="text/css">
	.st0{fill:#020203;}
</style>
<g>
	<path class="st0" d="M249.9,76.04c-73.36-59.85-141.05-59.6-201.5,0.84c-59.97,59.38-60.46,156.13-1.08,216.11
		c0.36,0.36,0.72,0.72,1.08,1.08l0.6,0.6c93.81,84.46,140.87,126.69,164.4,147.81l20.81,18.64c3.52,3.62,8.04,6.11,12.97,7.18
		c1.07,0.22,2.16,0.34,3.26,0.36c1.93,0.01,3.83-0.52,5.49-1.51l2.05-0.97l0,0c9.65-7.29,18.89-15.11,27.69-23.41
		c21.66-19.24,67.93-60.33,165.24-147.74l0.66-0.6c59.97-59.33,60.49-156.05,1.16-216.02c-0.39-0.39-0.77-0.78-1.16-1.16
		C377.73,3.22,303.11,32.78,249.9,76.04z"/>
</g>
</svg>
