<?xml version="1.0" encoding="utf-8"?>
<!-- Generator: Adobe Illustrator 19.0.0, SVG Export Plug-In . SVG Version: 6.00 Build 0)  -->
<svg version="1.1" id="Layer_1" xmlns="http://www.w3.org/2000/svg" xmlns:xlink="http://www.w3.org/1999/xlink" x="0px" y="0px"
	 viewBox="-170 170.9 500 500" style="enable-background:new -170 170.9 500 500;" xml:space="preserve">
<style type="text/css">
	.st0{fill:#FFFFFF;}
</style>
<path class="st0" d="M18.6,273.8c-1.5-1.5-1.5-4.1,0-6.2l66.8-67.5c1-1,2-1.5,3.6-1.5c1,0,2,0.5,3,1l215.7,217.8c0.5,1,1,2,1,3.1
	v0.5c0,1,0,2.1-1,3.1L92,642c-2,1.5-4.6,1.5-6.1,0L18.6,574c-1.5-2.1-1.5-4.7,0-6.2l91.8-94.2h-254.9c-2.6,0-4.1-2-4.1-4.7v-96.3
	c0-2.6,1.5-4.7,4.1-4.7h254.9L18.6,273.8z"/>
</svg>
