<?xml version="1.0" encoding="utf-8"?>
<!-- Generator: Adobe Illustrator 24.0.1, SVG Export Plug-In . SVG Version: 6.00 Build 0)  -->
<svg version="1.1" id="Layer_1" xmlns="http://www.w3.org/2000/svg" xmlns:xlink="http://www.w3.org/1999/xlink" x="0px" y="0px"
	 viewBox="0 0 500 500" style="enable-background:new 0 0 500 500;" xml:space="preserve">
<style type="text/css">
	.st0{fill:#020203;}
</style>
<path class="st0" d="M188.56,102.92c-1.53-1.54-1.53-4.15,0-6.2l66.76-67.5c1.02-0.97,2.05-1.48,3.64-1.48
	c0.97,0,1.99,0.51,3.02,1.02l215.68,217.84c0.51,0.96,1.03,2.04,1.03,3.07v0.51c0,1.02,0,2.05-1.03,3.07L261.97,471.1
	c-2.05,1.54-4.6,1.54-6.09,0l-67.32-67.95c-1.53-2.11-1.53-4.66,0-6.2l91.78-94.22H25.42c-2.56,0-4.1-2.05-4.1-4.66V201.8
	c0-2.61,1.54-4.66,4.1-4.66h254.91L188.56,102.92z"/>
</svg>
